<svg width="20" height="20" viewBox="0 0 20 20" fill="none" xmlns="http://www.w3.org/2000/svg">
<path d="M15.8333 9.16675H4.16667C3.24619 9.16675 2.5 9.91294 2.5 10.8334V16.6667C2.5 17.5872 3.24619 18.3334 4.16667 18.3334H15.8333C16.7538 18.3334 17.5 17.5872 17.5 16.6667V10.8334C17.5 9.91294 16.7538 9.16675 15.8333 9.16675Z" stroke="white" stroke-linecap="round" stroke-linejoin="round"/>
<path d="M5.83301 9.16675V5.83341C5.83301 4.72835 6.27199 3.66854 7.0534 2.88714C7.8348 2.10573 8.89461 1.66675 9.99967 1.66675C11.1047 1.66675 12.1646 2.10573 12.946 2.88714C13.7274 3.66854 14.1663 4.72835 14.1663 5.83341V9.16675" stroke="white" stroke-linecap="round" stroke-linejoin="round"/>
</svg>
