<svg width="16" height="16" viewBox="0 0 16 16" fill="none" xmlns="http://www.w3.org/2000/svg">
<g clip-path="url(#clip0)">
<path d="M12.5 16H3.5C2.67333 16 2 15.3273 2 14.5V7.5C2 6.67267 2.67333 6 3.5 6H12.5C13.3267 6 14 6.67267 14 7.5V14.5C14 15.3273 13.3267 16 12.5 16ZM3.5 7C3.22467 7 3 7.224 3 7.5V14.5C3 14.776 3.22467 15 3.5 15H12.5C12.7753 15 13 14.776 13 14.5V7.5C13 7.224 12.7753 7 12.5 7H3.5Z" fill="#A0A4A8"/>
<path d="M11.5 7C11.224 7 11 6.776 11 6.5V4C11 2.346 9.654 1 8 1C6.346 1 5 2.346 5 4V6.5C5 6.776 4.776 7 4.5 7C4.224 7 4 6.776 4 6.5V4C4 1.794 5.794 0 8 0C10.206 0 12 1.794 12 4V6.5C12 6.776 11.776 7 11.5 7Z" fill="#A0A4A8"/>
<path d="M7.99983 11.3334C7.2645 11.3334 6.6665 10.7354 6.6665 10.0001C6.6665 9.26475 7.2645 8.66675 7.99983 8.66675C8.73517 8.66675 9.33316 9.26475 9.33316 10.0001C9.33316 10.7354 8.73517 11.3334 7.99983 11.3334ZM7.99983 9.66674C7.8165 9.66674 7.6665 9.81608 7.6665 10.0001C7.6665 10.1841 7.8165 10.3334 7.99983 10.3334C8.18317 10.3334 8.33317 10.1841 8.33317 10.0001C8.33317 9.81608 8.18317 9.66674 7.99983 9.66674Z" fill="#A0A4A8"/>
<path d="M8 13.3333C7.724 13.3333 7.5 13.1093 7.5 12.8333V11C7.5 10.724 7.724 10.5 8 10.5C8.276 10.5 8.5 10.724 8.5 11V12.8333C8.5 13.1093 8.276 13.3333 8 13.3333Z" fill="#A0A4A8"/>
</g>
<defs>
<clipPath id="clip0">
<rect width="16" height="16" fill="white"/>
</clipPath>
</defs>
</svg>
